<?xml version="1.0" encoding="iso-8859-1"?>
<!-- Generator: Adobe Illustrator 16.0.0, SVG Export Plug-In . SVG Version: 6.00 Build 0)  -->
<!DOCTYPE svg PUBLIC "-//W3C//DTD SVG 1.1//EN" "http://www.w3.org/Graphics/SVG/1.1/DTD/svg11.dtd">
<svg version="1.1" id="Layer_1" xmlns="http://www.w3.org/2000/svg" xmlns:xlink="http://www.w3.org/1999/xlink" x="0px" y="0px"
	 width="480px" height="480px" viewBox="0 0 480 480" style="enable-background:new 0 0 480 480;" xml:space="preserve">
<path style="fill:#C3DA40;" d="M147.994,180.698H80.426c-2.936,0-5.316-2.381-5.316-5.32v-14.927
	c0-21.611,17.506-39.131,39.101-39.131l0,0c21.594,0,39.101,17.52,39.101,39.131v14.927
	C153.31,178.317,150.93,180.698,147.994,180.698z"/>
<path style="fill:#FFCF59;" d="M401.253,180.698h-67.567c-2.937,0-5.316-2.381-5.316-5.32v-14.927
	c0-21.611,17.506-39.131,39.101-39.131l0,0c21.595,0,39.101,17.52,39.101,39.131v14.927
	C406.569,178.317,404.188,180.698,401.253,180.698z"/>
<path style="fill:#FF62A7;" d="M147.994,389.722H80.426c-2.936,0-5.316-2.382-5.316-5.321v-14.927
	c0-21.612,17.506-39.133,39.101-39.133l0,0c21.594,0,39.101,17.521,39.101,39.133V384.4
	C153.31,387.339,150.93,389.722,147.994,389.722z"/>
<path style="fill:#31D2F7;" d="M401.253,389.722h-67.567c-2.937,0-5.316-2.382-5.316-5.321v-14.927
	c0-21.612,17.506-39.133,39.101-39.133l0,0c21.595,0,39.101,17.521,39.101,39.133V384.4
	C406.569,387.339,404.188,389.722,401.253,389.722z"/>
<path style="fill:#ADBC15;" d="M105.155,175.378v-14.927c0-16.283,9.94-30.239,24.078-36.133c-4.626-1.928-9.699-2.998-15.023-2.998
	l0,0c-21.595,0-39.101,17.52-39.101,39.131v14.927c0,2.939,2.38,5.32,5.317,5.32h30.046
	C107.536,180.698,105.155,178.317,105.155,175.378z"/>
<path style="fill:#FFB55C;" d="M358.414,175.378v-14.927c0-16.283,9.94-30.239,24.078-36.133c-4.627-1.928-9.7-2.998-15.023-2.998
	l0,0c-21.595,0-39.102,17.52-39.102,39.131v14.927c0,2.939,2.381,5.32,5.317,5.32h30.046
	C360.794,180.698,358.414,178.317,358.414,175.378z"/>
<path style="fill:#FC5479;" d="M105.155,384.4v-14.928c0-16.282,9.94-30.24,24.078-36.134c-4.626-1.928-9.699-2.998-15.023-2.998
	l0,0c-21.595,0-39.101,17.521-39.101,39.132V384.4c0,2.938,2.38,5.321,5.317,5.321h30.046
	C107.536,389.722,105.155,387.339,105.155,384.4z"/>
<path style="fill:#13ACE8;" d="M358.414,384.4v-14.928c0-16.282,9.94-30.24,24.078-36.134c-4.627-1.928-9.7-2.998-15.023-2.998l0,0
	c-21.595,0-39.102,17.521-39.102,39.132V384.4c0,2.938,2.381,5.321,5.317,5.321h30.046
	C360.794,389.722,358.414,387.339,358.414,384.4z"/>
<g>
	<path style="fill:#FAD393;" d="M113.872,143.598c-13.972,0-25.338-11.375-25.338-25.359c0-13.983,11.366-25.359,25.338-25.359
		s25.339,11.376,25.339,25.359C139.211,132.222,127.844,143.598,113.872,143.598z"/>
	<path style="fill:#FAD393;" d="M367.131,143.598c-13.972,0-25.339-11.375-25.339-25.359c0-13.983,11.367-25.359,25.339-25.359
		s25.339,11.376,25.339,25.359C392.47,132.222,381.103,143.598,367.131,143.598z"/>
	<path style="fill:#FAD393;" d="M113.872,352.62c-13.972,0-25.338-11.376-25.338-25.358s11.366-25.359,25.338-25.359
		s25.339,11.376,25.339,25.359C139.211,341.244,127.844,352.62,113.872,352.62z"/>
	<path style="fill:#FAD393;" d="M367.131,352.62c-13.972,0-25.339-11.376-25.339-25.358s11.367-25.359,25.339-25.359
		s25.339,11.376,25.339,25.359C392.47,341.244,381.103,352.62,367.131,352.62z"/>
</g>
<g>
	<path style="fill:#EDB769;" d="M112.464,118.239c0-9.654,5.419-18.064,13.373-22.346c-3.566-1.92-7.641-3.013-11.966-3.013
		c-13.971,0-25.338,11.376-25.338,25.359c0,13.983,11.367,25.359,25.338,25.359c4.325,0,8.399-1.093,11.966-3.013
		C117.883,136.303,112.464,127.894,112.464,118.239z"/>
	<path style="fill:#EDB769;" d="M365.723,118.239c0-9.654,5.42-18.064,13.373-22.346c-3.565-1.92-7.64-3.013-11.965-3.013
		c-13.972,0-25.339,11.376-25.339,25.359c0,13.983,11.367,25.359,25.339,25.359c4.325,0,8.399-1.093,11.965-3.013
		C371.144,136.303,365.723,127.894,365.723,118.239z"/>
	<path style="fill:#EDB769;" d="M112.464,327.262c0-9.654,5.419-18.063,13.373-22.347c-3.566-1.92-7.641-3.013-11.966-3.013
		c-13.971,0-25.338,11.376-25.338,25.359c0,13.982,11.367,25.358,25.338,25.358c4.325,0,8.399-1.093,11.966-3.013
		C117.883,345.325,112.464,336.916,112.464,327.262z"/>
	<path style="fill:#EDB769;" d="M365.723,327.262c0-9.654,5.42-18.063,13.373-22.347c-3.565-1.92-7.64-3.013-11.965-3.013
		c-13.972,0-25.339,11.376-25.339,25.359c0,13.982,11.367,25.358,25.339,25.358c4.325,0,8.399-1.093,11.965-3.013
		C371.144,345.325,365.723,336.916,365.723,327.262z"/>
</g>
<path d="M156.146,99.996c0.97,0,1.954-0.249,2.853-0.771c5.468-3.176,11.178-6.061,16.969-8.575c2.885-1.252,4.21-4.607,2.959-7.495
	c-1.251-2.887-4.604-4.213-7.489-2.961c-6.197,2.689-12.305,5.775-18.155,9.173c-2.721,1.581-3.645,5.067-2.066,7.79
	C152.272,98.979,154.182,99.996,156.146,99.996z"/>
<path d="M269.154,79.622c6.23,1.081,12.459,2.542,18.516,4.341c0.541,0.162,1.086,0.238,1.624,0.238c2.455,0,4.72-1.603,5.456-4.078
	c0.896-3.018-0.822-6.189-3.837-7.085c-6.481-1.925-13.146-3.49-19.813-4.646c-3.096-0.537-6.047,1.54-6.584,4.641
	C263.98,76.134,266.057,79.084,269.154,79.622z"/>
<path d="M230.883,77.505c0.113,0,0.226-0.003,0.34-0.01c3.232-0.191,6.516-0.288,9.759-0.288c0.006,0,0.012,0,0.017,0
	c3.083,0,6.196,0.087,9.255,0.258c3.156,0.18,5.827-2.229,6.002-5.372c0.175-3.142-2.228-5.832-5.367-6.006
	c-3.27-0.184-6.597-0.276-9.889-0.276c-0.007,0-0.012,0-0.019,0c-3.465,0-6.974,0.103-10.427,0.307
	c-3.139,0.185-5.535,2.882-5.349,6.024C225.382,75.169,227.892,77.505,230.883,77.505z"/>
<path d="M404.38,195.986c-3.06,0.73-4.948,3.804-4.22,6.865c1.464,6.147,2.58,12.453,3.32,18.742c0.342,2.9,2.801,5.033,5.647,5.033
	c0.223,0,0.447-0.013,0.674-0.04c3.122-0.367,5.355-3.2,4.988-6.325c-0.791-6.728-1.985-13.474-3.551-20.051
	C410.509,197.147,407.439,195.255,404.38,195.986z"/>
<path d="M394.791,296.953c-1.075,2.957,0.449,6.228,3.405,7.304c0.642,0.234,1.299,0.345,1.946,0.345
	c2.326,0,4.51-1.438,5.352-3.752c2.314-6.365,4.275-12.935,5.831-19.524c0.722-3.063-1.174-6.134-4.234-6.856
	c-3.057-0.721-6.128,1.174-6.851,4.238C398.787,284.866,396.955,291.006,394.791,296.953z"/>
<path d="M305.559,90.447c5.805,2.497,11.526,5.367,17.011,8.529c0.897,0.516,1.873,0.762,2.838,0.762
	c1.97,0,3.886-1.024,4.938-2.854c1.57-2.727,0.635-6.211-2.09-7.783c-5.867-3.384-11.99-6.454-18.2-9.125
	c-2.891-1.247-6.238,0.093-7.48,2.985C301.334,85.853,302.67,89.204,305.559,90.447z"/>
<path d="M74.944,274.647c-3.06,0.727-4.952,3.798-4.227,6.859c1.562,6.589,3.528,13.152,5.848,19.509
	c0.843,2.312,3.025,3.746,5.349,3.746c0.648,0,1.308-0.111,1.952-0.348c2.954-1.079,4.475-4.351,3.396-7.307
	c-2.167-5.94-4.005-12.072-5.464-18.229C81.073,275.815,78.01,273.921,74.944,274.647z"/>
<path d="M192.188,84.356c0.542,0,1.095-0.078,1.642-0.242c6.047-1.819,12.272-3.3,18.5-4.402c3.097-0.548,5.165-3.504,4.617-6.604
	c-0.547-3.1-3.499-5.167-6.598-4.621c-6.665,1.178-13.325,2.764-19.799,4.71c-3.012,0.906-4.718,4.084-3.813,7.098
	C187.478,82.765,189.74,84.356,192.188,84.356z"/>
<path d="M410.305,234.89c-3.146,0-5.693,2.551-5.693,5.697v0.36c0,6.347-0.367,12.744-1.091,19.011
	c-0.36,3.127,1.879,5.954,5.003,6.315c0.222,0.025,0.442,0.038,0.661,0.038c2.852,0,5.313-2.141,5.649-5.044
	c0.773-6.7,1.166-13.537,1.166-20.32v-0.36C415.999,237.441,413.449,234.89,410.305,234.89z"/>
<path d="M269.496,402.215c-6.211,1.092-12.568,1.83-18.896,2.197c-3.14,0.182-5.537,2.875-5.355,6.018
	c0.175,3.03,2.686,5.368,5.68,5.368c0.109,0,0.223-0.003,0.334-0.01c6.764-0.391,13.563-1.182,20.207-2.349
	c3.098-0.545,5.168-3.499,4.623-6.599C275.547,403.742,272.593,401.67,269.496,402.215z"/>
<path d="M231.57,404.422c-6.328-0.36-12.685-1.092-18.896-2.178c-3.104-0.541-6.048,1.535-6.589,4.635
	c-0.541,3.101,1.533,6.052,4.63,6.594c6.645,1.16,13.444,1.943,20.21,2.328c0.109,0.006,0.219,0.01,0.328,0.01
	c2.997,0,5.508-2.345,5.68-5.376C237.11,407.292,234.709,404.601,231.57,404.422z"/>
<path d="M194.163,397.883c-6.057-1.807-12.073-3.995-17.882-6.502c-2.887-1.246-6.238,0.086-7.482,2.977
	c-1.246,2.89,0.086,6.242,2.974,7.488c6.218,2.683,12.655,5.023,19.137,6.958c0.543,0.161,1.09,0.239,1.63,0.239
	c2.453,0,4.717-1.601,5.455-4.072C198.891,401.956,197.177,398.783,194.163,397.883z"/>
<path d="M72.154,227.125c0.221,0.025,0.438,0.038,0.655,0.038c2.855,0,5.318-2.145,5.649-5.051c0.72-6.292,1.816-12.601,3.26-18.752
	c0.719-3.064-1.18-6.131-4.241-6.851c-3.062-0.722-6.127,1.18-6.846,4.245c-1.543,6.581-2.717,13.33-3.487,20.061
	C66.786,223.941,69.029,226.767,72.154,227.125z"/>
<path d="M305.871,391.315c-5.805,2.512-11.816,4.705-17.867,6.518c-3.014,0.903-4.724,4.08-3.821,7.094
	c0.737,2.471,3.002,4.066,5.453,4.066c0.54,0,1.09-0.078,1.636-0.24c6.477-1.941,12.908-4.288,19.12-6.976
	c2.887-1.25,4.215-4.604,2.966-7.491C312.109,391.396,308.759,390.066,305.871,391.315z"/>
<path d="M73.502,266.452c3.124-0.364,5.36-3.193,4.995-6.32c-0.729-6.267-1.103-12.662-1.109-19.01
	c-0.002-3.146-2.552-5.693-5.693-5.693c-0.001,0-0.003,0-0.006,0c-3.145,0.004-5.691,2.557-5.688,5.705
	c0.007,6.783,0.406,13.619,1.187,20.319c0.339,2.901,2.799,5.038,5.648,5.038C73.055,266.491,73.278,266.479,73.502,266.452z"/>
<path d="M81.316,185.244h65.788c6.673,0,12.103-5.433,12.103-12.111v-13.731c0-4.56-0.74-9.042-2.2-13.323
	c-0.917-2.687-3.84-4.122-6.521-3.205c-2.686,0.917-4.119,3.839-3.202,6.526c1.094,3.209,1.648,6.575,1.648,10.002v13.731
	c0,1.009-0.819,1.83-1.828,1.83H81.315c-1.008,0-1.828-0.82-1.828-1.83v-13.731c0-8.843,3.794-17.221,10.3-23.06
	c5.503,7.314,14.25,12.055,24.083,12.055c16.615,0,30.133-13.529,30.133-30.158c0-16.628-13.517-30.157-30.132-30.157
	s-30.133,13.529-30.133,30.157c0,3.024,0.452,5.944,1.284,8.701c-9.934,7.793-15.808,19.765-15.808,32.462v13.732
	C69.213,179.811,74.643,185.244,81.316,185.244z M113.872,98.364c10.951,0,19.859,8.916,19.859,19.875
	c0,10.959-8.908,19.875-19.859,19.875c-10.95,0-19.859-8.916-19.859-19.875C94.013,107.279,102.921,98.364,113.872,98.364z"/>
<path d="M322.793,159.401v13.732c0,6.678,5.429,12.111,12.103,12.111h65.787c6.674,0,12.103-5.433,12.103-12.111v-13.732
	c0-4.56-0.74-9.042-2.2-13.322c-0.916-2.688-3.839-4.122-6.521-3.206c-2.686,0.917-4.119,3.838-3.202,6.527
	c1.094,3.209,1.648,6.574,1.648,10.001v13.732c0,1.009-0.82,1.829-1.828,1.829h-65.787c-1.009,0-1.828-0.82-1.828-1.829v-13.732
	c0-8.842,3.795-17.221,10.3-23.059c5.503,7.314,14.25,12.054,24.083,12.054c16.616,0,30.134-13.529,30.134-30.157
	c0-16.628-13.518-30.157-30.134-30.157c-16.615,0-30.133,13.529-30.133,30.157c0,3.024,0.452,5.944,1.284,8.7
	C328.667,134.733,322.793,146.704,322.793,159.401z M367.45,98.364c10.95,0,19.859,8.916,19.859,19.875
	c0,10.959-8.908,19.875-19.859,19.875c-10.95,0-19.859-8.916-19.859-19.875C347.591,107.279,356.5,98.364,367.45,98.364z"/>
<path d="M404.064,351.444c-2.687,0.917-4.119,3.838-3.203,6.526c1.094,3.208,1.648,6.574,1.648,10.002v13.731
	c0,1.009-0.819,1.829-1.828,1.829h-65.787c-1.009,0-1.828-0.82-1.828-1.829v-13.731c0-8.844,3.795-17.221,10.3-23.06
	c5.504,7.315,14.25,12.055,24.084,12.055c16.615,0,30.134-13.528,30.134-30.157s-13.519-30.157-30.134-30.157
	c-16.616,0-30.133,13.528-30.133,30.157c0,3.024,0.452,5.943,1.283,8.699c-9.934,7.795-15.808,19.767-15.808,32.463v13.732
	c0,6.678,5.428,12.111,12.103,12.111h65.787c6.674,0,12.103-5.433,12.103-12.111v-13.732c0-4.559-0.74-9.042-2.2-13.322
	C409.668,351.961,406.745,350.525,404.064,351.444z M367.45,306.934c10.95,0,19.859,8.916,19.859,19.876
	s-8.908,19.876-19.859,19.876c-10.95,0-19.859-8.916-19.859-19.876S356.5,306.934,367.45,306.934z"/>
<path d="M150.485,351.444c-2.686,0.917-4.119,3.838-3.202,6.526c1.094,3.208,1.648,6.574,1.648,10.002v13.731
	c0,1.009-0.819,1.829-1.828,1.829H81.316c-1.008,0-1.828-0.82-1.828-1.829v-13.731c0-8.844,3.794-17.221,10.3-23.06
	c5.504,7.315,14.25,12.055,24.083,12.055c16.616,0,30.134-13.528,30.134-30.157s-13.518-30.157-30.134-30.157
	c-16.615,0-30.132,13.528-30.132,30.157c0,3.024,0.452,5.943,1.284,8.699c-9.934,7.795-15.808,19.767-15.808,32.463v13.732
	c0,6.678,5.429,12.111,12.102,12.111h65.788c6.673,0,12.103-5.433,12.103-12.111v-13.732c0-4.559-0.74-9.042-2.2-13.322
	C156.089,351.961,153.165,350.525,150.485,351.444z M113.872,306.934c10.951,0,19.859,8.916,19.859,19.876
	s-8.908,19.876-19.859,19.876c-10.95,0-19.859-8.916-19.859-19.876S102.921,306.934,113.872,306.934z"/>
<g>
</g>
<g>
</g>
<g>
</g>
<g>
</g>
<g>
</g>
<g>
</g>
<g>
</g>
<g>
</g>
<g>
</g>
<g>
</g>
<g>
</g>
<g>
</g>
<g>
</g>
<g>
</g>
<g>
</g>
<g>
	<path style="fill:#7F7369;" d="M267.373,237.831h-15.868c-2.401,0-4.368-1.965-4.368-4.367l-2.183-37.008
		c0,0-3.533-30.655,14.794-34.683c0,0,7.453-14.501,31.319-9.855c0.326,0.063,0.64,0.181,0.956,0.279
		c5.499,1.706,10.61,4.723,14.859,8.951c12.998,12.934,10.384,28.214,10.71,30.115c0,10.616,0.168-1.183-2.184,42.202
		c0,2.402-1.965,4.368-4.367,4.368H294.16"/>
	<path style="fill:#72655A;" d="M270.132,237.831v-5.193c-9.809-4.335-15.925-13.611-16.44-23.78
		c-0.003-0.068-0.014-0.282-0.016-0.322c-0.014-0.36-0.022-0.72-0.022-1.083c0.005-16.339-0.01-15.348,0.012-15.616
		c-0.163-8.721,1.186-27.016,15.056-30.064c0,0,4.567-8.884,17.998-10.516c-10.234-1.125-22.238,1.916-26.971,10.516
		c-12.367,2.719-15.343,17.778-15.05,30.369c0.005,0.176,0.009,0.347,0.015,0.513c0.072,2.334,0.241,3.801,0.241,3.801l2.183,37.008
		c0,2.402,1.967,4.368,4.368,4.368C255.349,237.831,265.932,237.831,270.132,237.831z"/>
	<path style="fill:#DD9A5E;" d="M231.242,318.788l4.695-41.952c1.646-12.668,0.97-17.535,5.058-22.495
		c-1.262-1.534-3.064-2.966-4.252-3.691l-0.131-0.032c-4.42-2.647-8.142-2.759-16.355-5.019l0,0l-8.398-4.02l0,0v-10.033
		c-7.037,3.111-15.128,3.003-21.902,0.058l0,0l-0.036,10.017l0,0l0,0l0,0l-8.363,3.979l0,0c-8.161,2.246-11.926,2.366-16.355,5.019
		l-0.131,0.032c-0.373,0.229-0.766,0.502-1.154,0.809c-6.329,4.544-6.429,10.446-6.975,14.808l-2.513,22.461l0,0
		c-3.54,32.144-3.433,29.558-3.433,32.036c-0.056,4.079,2.447,10.239,10.05,10.239l0,0c0.706,0,79.348,0.003,79.948-0.007
		C234.184,330.881,230.646,325.686,231.242,318.788z"/>
	<g>
		<path style="fill:#D38D54;" d="M160.052,320.749c-0.062-3.544,0.68-3.506,6.232-61.022c0.58-4.758,2.022-8.645,6.173-11.861
			c-0.629,0.198-3.806,0.686-7.255,2.752l-0.131,0.032c-0.398,0.243-0.793,0.523-1.154,0.81c-6.329,4.543-6.429,10.445-6.975,14.807
			c-0.045,0.397-5.946,52.758-5.946,54.497c-0.055,4.079,2.448,10.239,10.051,10.239l0,0h9.055
			C163.581,331.002,159.938,326.095,160.052,320.749z"/>
		<path style="fill:#D38D54;" d="M198.978,250.187v-16.408c-3.261-0.219-6.313-0.998-9.021-2.175l-0.036,10.017l0,0L198.978,250.187
			z"/>
	</g>
	<path style="fill:#EAB883;" d="M330.925,318.788c-6.396-56.634-6.035-55.035-6.607-57.805c-0.929-4.493-3.639-8.038-7.398-10.334
		l-0.131-0.032c-1.601-0.959-3.384-1.715-5.3-2.267l-18.439-4.591c-0.6-0.271-1.015-1.163-1.015-2.181v-8.895
		c-6.949,3.031-15.05,2.983-21.901-0.046v8.941c0,1.018-0.415,1.91-1.014,2.182c-15.599,4.155-19.068,4.059-23.74,6.856
		l-0.131,0.032c-5.16,3.151-7.154,7.423-7.842,13.061l-6.164,55.078c-0.618,7.14,3.167,12.214,9.982,12.214
		c10.844,0,71.051,0,79.719,0c7.603,0,10.106-6.16,10.05-10.239c0-0.004,0-0.009,0-0.013
		C331.006,320.011,330.972,319.34,330.925,318.788z"/>
	<path style="fill:#D8A373;" d="M240.229,320.763c0-0.004,0-0.009,0-0.014c-0.013-0.738,0.021-1.409,0.069-1.961l6.164-58.337
		c0.658-5.403,2.499-9.671,7.688-12.965c-1.523,0.462-4.996,0.871-8.771,3.131l-0.131,0.032c-5.16,3.151-7.154,7.423-7.842,13.061
		l-6.164,55.077c-0.617,7.141,3.167,12.214,9.982,12.214c5.605,0,3.449,0,9.055,0C242.676,331.002,240.173,324.842,240.229,320.763z
		"/>
	<path style="fill:#D83D3D;" d="M327.56,288.719c-2.906-25.8-2.78-25.501-3.242-27.735c-0.935-4.519-3.674-8.061-7.398-10.334
		c-0.037-0.01-0.168-0.042-0.131-0.033c-1.601-0.958-3.384-1.714-5.3-2.267l-18.439-4.59c-0.6-0.271-1.015-1.164-1.015-2.182v-8.894
		l0,0v-0.047c-7.006,3.095-15.064,3.021-21.901,0v0.047l0,0v8.894c0,1.018-0.415,1.91-1.014,2.182
		c-15.599,4.155-19.068,4.059-23.74,6.856c-0.037,0.01-0.168,0.042-0.131,0.033c-5.113,3.122-7.155,7.431-7.842,13.061
		l-2.799,25.009l17.641,1.851c0.938,0.099,1.636,0.914,1.589,1.856l-1.938,38.575c21.593,0,36.892,0,58.477,0l-2.031-38.427
		c-0.055-1.025,0.703-1.912,1.725-2.02L327.56,288.719z"/>
	<path style="fill:#A82626;" d="M234.607,288.719l8.77,0.92l3.084-29.188c0.658-5.402,2.499-9.671,7.688-12.965
		c-2.193,0.588-5.385,1.102-8.771,3.131c-0.037,0.009-0.168,0.041-0.131,0.032c-3.773,2.304-6.472,5.857-7.398,10.334
		C237.282,263.729,237.389,264.328,234.607,288.719z"/>
	<path style="fill:#70BBEF;" d="M236.677,250.649c-0.037-0.01-0.167-0.042-0.131-0.032c-4.43-2.654-8.21-2.778-16.297-5.004
		l0.008-0.015l-8.399-4.02l-0.061,0.091c0-0.011-0.001-0.021-0.002-0.033l-10.954,10.313l-10.922-10.33l-8.363,3.979l0,0
		c-8.161,2.246-11.926,2.366-16.355,5.019l-0.13,0.032c-5.161,3.151-7.155,7.424-7.843,13.061l-2.799,25.017l17.304,1.815
		c1.091,0.115,1.902,1.063,1.847,2.157l-1.923,38.303c17.778,0,39.624,0,58.476,0l-2.031-38.423
		c-0.055-1.027,0.706-1.917,1.729-2.025l4.625-0.485c3.391-28.134,2.399-30.658,6.508-35.688
		C240.063,253.278,237.66,251.249,236.677,250.649z"/>
	<path style="fill:#4CAEE5;" d="M166.285,259.727c0.58-4.758,2.022-8.645,6.173-11.861c-0.822,0.232-3.914,0.75-7.255,2.752
		l-0.131,0.032c-1.225,0.749-3.048,2.215-4.287,3.731c-4.384,5.367-3.192,9.601-6.355,34.346l8.95,0.939
		C163.353,289.95,163.739,286.096,166.285,259.727z"/>
	<path style="fill:#EAB883;" d="M300.434,245.599l-7.385-1.839c-0.601-0.271-1.015-1.163-1.015-2.181v-9.981l0,0v-0.046
		c-7.064,3.121-15.134,2.99-21.902,0v0.046l0,0v9.981c0,1.018-0.414,1.91-1.014,2.181l-7.495,1.867
		C270.631,260.778,291.432,260.784,300.434,245.599z"/>
	<path id="SVGCleanerId_0" style="fill:#4C4846;" d="M166.513,194.769v-9.441c0-27.789,31.416-43.867,53.955-28.165
		c17.68,12.343,14.313,30.496,14.702,37.606"/>
	<g>
		<path id="SVGCleanerId_0_1_" style="fill:#4C4846;" d="M166.513,194.769v-9.441c0-27.789,31.416-43.867,53.955-28.165
			c17.68,12.343,14.313,30.496,14.702,37.606"/>
	</g>
	<path style="fill:#3F3B39;" d="M204.263,151.17c-19.963-1.982-37.75,13.627-37.75,34.157v9.441h6.845v-9.441
		C173.358,167.679,186.758,152.91,204.263,151.17z"/>
	<g>
		<path style="fill:#DD9A5E;" d="M236.877,197.839c0,3.956-3.829,7.163-8.553,7.163v-14.325
			C233.048,190.676,236.877,193.883,236.877,197.839z"/>
		<path style="fill:#DD9A5E;" d="M164.804,197.839c0,3.956,3.83,7.163,8.554,7.163v-14.325
			C168.634,190.676,164.804,193.883,164.804,197.839z"/>
	</g>
	<g>
		<path style="fill:#D38D54;" d="M228.324,198.563v6.438c4.724,0,8.553-3.207,8.553-7.163c0-1.159-0.33-2.251-0.913-3.219
			C234.557,196.958,231.665,198.563,228.324,198.563z"/>
		<path style="fill:#D38D54;" d="M165.717,194.62c-2.838,4.714,1.234,10.382,7.641,10.382v-6.438
			C170.016,198.563,167.125,196.958,165.717,194.62z"/>
	</g>
	<path style="fill:#EDAE6B;" d="M221.992,180.724c-0.1-2.746-2.36-4.25-4.542-3.909c-0.51,0.079-1.072,0.161-1.433,0.212
		c-10.835,1.538-21.136,1.441-31.785-0.212c-2.164-0.338-4.443,1.143-4.541,3.909c-0.149,4.079-1.844,7.111-4.427,9
		c-1.076,0.787-1.87,1.057-1.906,1.076c0,17.791-0.212,18.979,0.741,23.009c0.913,3.848,2.6,7.287,4.808,10.205
		c12.788,16.912,39.561,13.61,47.499-6.45c2.627-6.638,1.92-11.677,1.92-26.764C228.222,190.724,222.276,188.615,221.992,180.724z"
		/>
	<path style="fill:#DD9A5E;" d="M183.436,218.35c-1.941-6.917-0.864-11.143-1.167-24.254c0-1.35,0.678-2.497,1.505-3.083
		c3.263-2.321,4.744-6.116,4.836-10.167c0.032-1.363,0.67-2.533,1.613-3.267c-1.308-0.13-2.577-0.281-3.75-0.439
		c-0.683-0.092-1.462-0.203-2.24-0.324c-2.158-0.336-4.442,1.138-4.541,3.909c-0.149,4.071-1.841,7.108-4.427,9
		c-1.077,0.787-1.87,1.057-1.906,1.076c0,17.899-0.011,16.974,0.026,17.855c0.555,12.557,9.516,22.769,20.7,25.437
		C193.563,233.704,185.617,226.133,183.436,218.35z"/>
	<path style="fill:#4CAEE5;" d="M203.558,271.69v-22.298l-2.717,2.558l-2.716-2.569v22.31c0,1.5,1.216,2.716,2.716,2.716
		S203.558,273.19,203.558,271.69z"/>
	<path style="fill:#DADADA;" d="M211.858,241.579l-11.017,10.371l5.947,5.993c1.136,1.144,3.018,1.033,4.01-0.237l9.458-12.107
		L211.858,241.579z"/>
	<g>
		<polygon style="fill:#CECCCA;" points="216.087,243.603 211.858,241.579 200.841,251.95 204.777,255.916 		"/>
		<path style="fill:#CECCCA;" d="M207.597,258.5c0.498,0.221,1.045,0.285,1.57,0.19L207.597,258.5z"/>
	</g>
	<path style="fill:#DADADA;" d="M189.92,241.62l10.922,10.33l-5.947,5.993c-1.136,1.144-3.018,1.033-4.01-0.237l-9.458-12.107
		L189.92,241.62z"/>
	<polygon style="fill:#CECCCA;" points="193.142,251.91 196.906,255.916 200.841,251.95 189.92,241.62 185.442,243.718 	"/>
	<path style="fill:#D8A373;" d="M279.233,247.112v-13.336c-3.249-0.223-6.33-1.001-9.102-2.225
		c-0.274,7.919,0.718,11.424-1.014,12.208l-7.495,1.867c1.865,3.138,4.388,5.791,7.362,7.743l7.782-2.861
		C276.769,250.509,279.233,249.285,279.233,247.112z"/>
	<path style="fill:#F7CF9C;" d="M305.854,198.462c1.547,0.072,2.766,1.345,2.766,2.893v2.078l0,0l0,0
		c-0.008,3.691,0.25,7.274-1.168,11.969c-1.427,4.732-4.115,9.081-8.156,12.675c-17.049,15.183-44.444,3.721-45.604-19.22
		c-0.006-0.104-0.002,0.029-0.016-0.322c-0.014-0.36-0.022-0.72-0.022-1.083c0-3.273,0-10.743,0-13.941l0,0v-1.392
		c0-1.617,1.139-3,2.721-3.335c2.807-0.594,7.343-2.206,11.457-6.585c1.034-1.101,2.798-1.043,3.759,0.121
		C275.582,187.158,286.363,197.551,305.854,198.462z"/>
	<path style="fill:#EAB883;" d="M265.551,219.64c-3.63-7.334-2.787-12.533-2.843-22.726c0-3.537,0-7.065,0-10.609
		c-2.418,1.418-4.678,2.13-6.334,2.479c-1.583,0.335-2.721,1.717-2.721,3.334c0,3.544,0,11.417,0,15.333
		c0,0.455,0.023,1.162,0.025,1.204c0.001,0.037,0.038,0.67,0.063,0.989c1.269,16.133,16.143,27.527,31.921,24.912
		C276.989,233.119,269.491,227.579,265.551,219.64z"/>
	<g>
		<path style="fill:#B72C2C;" d="M305.731,246.918l-5.298-1.319c-4.058,6.845-11.233,11.396-19.414,11.396
			C281.02,256.995,305.841,281.819,305.731,246.918z"/>
		<path style="fill:#B72C2C;" d="M256.425,246.918l5.298-1.319c4.057,6.845,11.232,11.396,19.413,11.396
			C281.136,256.995,256.315,281.819,256.425,246.918z"/>
	</g>
	<g>
		<path style="fill:#A82626;" d="M269.329,253.52c-4.38,2.331-9.427,3.443-12.658-0.881c2.572,26.252,24.465,4.356,24.465,4.356
			C276.816,256.995,272.777,255.725,269.329,253.52z"/>
		<path style="fill:#A82626;" d="M292.826,253.52c4.38,2.331,9.426,3.443,12.659-0.881c-2.572,26.252-24.466,4.356-24.466,4.356
			C285.339,256.995,289.379,255.725,292.826,253.52z"/>
	</g>
	<path style="fill:#996123;" d="M259.774,248.481c-10.412-13.125-30.519-11.701-39.167,2.289
		c-5.061,8.176-3.151,15.626-3.571,17.905h47.917C264.802,263.994,266.092,256.439,259.774,248.481z"/>
	<path style="fill:#8E551C;" d="M223.537,257.819c0.107-0.454,0.36-1.351,0.372-1.389c2.67-8.856,10.396-15.67,20.015-16.843
		c-9.523-1.16-18.508,3.401-23.315,11.183c-5.061,8.176-3.151,15.624-3.571,17.905h5.854
		C222.897,263.678,222.705,261.346,223.537,257.819z"/>
	<path style="fill:#996123;" d="M272.086,288.729c-2.104-6.529-4.834-10.606-6.914-12.731c-1.202,1.183-2.867,2.024-4.762,2.326
		c3.476,5.012,2.714,10.014,2.541,12.989c-0.079,1.357,1.143,2.424,2.475,2.147l4.436-0.92
		C271.587,292.182,272.627,290.406,272.086,288.729z"/>
	<path style="fill:#EFD0A3;" d="M267.506,271.865c0,3.836-3.713,6.944-8.293,6.944v-13.889
		C263.793,264.921,267.506,268.029,267.506,271.865z"/>
	<path style="fill:#8E551C;" d="M209.903,288.729c2.105-6.529,4.834-10.606,6.915-12.731c1.201,1.183,2.867,2.024,4.762,2.326
		c-3.476,5.012-2.714,10.014-2.541,12.989c0.079,1.357-1.143,2.424-2.475,2.147l-4.436-0.92
		C210.403,292.182,209.363,290.406,209.903,288.729z"/>
	<path style="fill:#EFD0A3;" d="M214.484,271.865c0,3.836,3.713,6.944,8.293,6.944v-13.889
		C218.197,264.921,214.484,268.029,214.484,271.865z"/>
	<g>
		<path style="fill:#E2BF91;" d="M259.213,272.861v5.948c6.146,0,10.075-5.367,7.495-9.919
			C265.378,271.238,262.521,272.861,259.213,272.861z"/>
		<path style="fill:#E2BF91;" d="M215.282,268.891c-2.585,4.56,1.366,9.919,7.495,9.919v-5.948
			C219.468,272.861,216.613,271.238,215.282,268.891z"/>
	</g>
	<path style="fill:#EFD0A3;" d="M271.802,331.002l-1.89-16.885c-0.431-3.536-1.674-6.506-5.198-8.658l-0.087-0.021
		c-3.084-1.849-5.321-1.771-15.736-4.546c-1.151-0.521-0.483-2.755-0.672-8.428c-4.652,2.036-10.039,1.951-14.517-0.031
		c-0.185,5.541,0.483,7.936-0.672,8.459c-10.395,2.77-12.648,2.695-15.736,4.546l-0.086,0.021c-2.484,1.519-4.287,3.862-4.904,6.851
		c-0.369,1.782-0.272,1.926-2.184,18.692H271.802L271.802,331.002z"/>
	<path style="fill:#F9B938;" d="M210.118,331.002c14.958,0,46.715,0,61.684,0l-1.891-16.885c-0.43-3.531-1.678-6.509-5.197-8.658
		l-0.087-0.021c-3.058-1.832-5.522-1.836-13.778-4.059c0,0.078,0,2.223,0,2.185c0,1.565-0.368,3.057-1.02,4.37
		c-0.107,0.218-0.282,0.539-0.449,0.809c-0.008,0.013-0.116,0.183-0.124,0.194c-0.173,0.265-0.357,0.52-0.538,0.747
		c-0.085,0.107-0.2,0.246-0.292,0.35c-0.015,0.017-0.028,0.032-0.043,0.05c-0.059,0.065-0.117,0.132-0.178,0.196
		c-0.006,0.007-0.014,0.014-0.019,0.021c-0.002,0.002-0.003,0.003-0.005,0.004c-0.009,0.01-0.018,0.02-0.026,0.029
		c-0.07,0.073-0.141,0.146-0.212,0.216c-0.024,0.023-0.048,0.048-0.07,0.071c-0.094,0.091-0.188,0.179-0.284,0.266
		c-0.027,0.024-0.056,0.049-0.083,0.073c-0.061,0.054-0.123,0.104-0.184,0.157c-0.01,0.009-0.02,0.017-0.028,0.024
		c-0.037,0.031-0.074,0.062-0.112,0.091c-0.064,0.052-0.129,0.104-0.194,0.154c-0.041,0.031-0.083,0.063-0.125,0.094
		c-0.063,0.047-0.128,0.094-0.193,0.14c-0.032,0.023-0.064,0.046-0.097,0.067c-0.011,0.008-0.021,0.016-0.032,0.022
		c-0.067,0.046-0.136,0.091-0.204,0.135c-0.01,0.007-0.021,0.014-0.03,0.02c-0.032,0.021-0.063,0.042-0.096,0.061
		c-0.058,0.037-0.115,0.071-0.176,0.106c-0.019,0.012-0.038,0.023-0.058,0.035c-0.009,0.005-0.018,0.01-0.025,0.016
		c-0.026,0.015-0.052,0.03-0.077,0.046c-0.113,0.063-0.229,0.127-0.345,0.187c-0.015,0.008-0.031,0.016-0.047,0.023
		c-0.006,0.003-0.011,0.006-0.017,0.009c-0.019,0.01-0.038,0.019-0.058,0.027c-0.077,0.039-0.154,0.078-0.232,0.115
		c-0.042,0.02-0.085,0.038-0.127,0.058c-0.077,0.035-0.157,0.069-0.235,0.104c-0.047,0.02-0.096,0.038-0.145,0.058
		c-0.076,0.03-0.151,0.061-0.227,0.089c-0.05,0.019-0.101,0.037-0.15,0.055c-0.077,0.027-0.156,0.054-0.234,0.08
		c-0.039,0.013-0.078,0.025-0.117,0.037c-0.01,0.003-0.02,0.007-0.029,0.011c-0.021,0.006-0.044,0.012-0.066,0.019
		c-0.064,0.02-0.128,0.039-0.193,0.057c-0.031,0.009-0.063,0.018-0.096,0.026c-0.01,0.003-0.02,0.006-0.03,0.009
		c-0.13,0.034-0.26,0.066-0.392,0.096c-0.02,0.005-0.039,0.008-0.059,0.012c-0.059,0.013-0.117,0.025-0.175,0.037
		c-0.156,0.03-0.313,0.058-0.473,0.081c-0.317,0.046-0.64,0.076-0.966,0.092c-0.039,0.002-0.078,0.003-0.117,0.004
		c-0.021,0-0.041,0.001-0.063,0.002c-0.057,0.002-0.114,0.003-0.17,0.003c-0.017,0-0.032,0-0.048,0.001c-0.004,0-0.007,0-0.011,0
		c-0.02,0-0.039,0.001-0.06,0.001c-0.02,0-0.039-0.001-0.059-0.001c-0.004,0-0.008,0-0.012,0c-0.016,0-0.031,0-0.047-0.001
		c-0.057,0-0.113-0.001-0.17-0.003c-0.021-0.001-0.042-0.002-0.063-0.002c-0.039-0.002-0.078-0.002-0.116-0.004
		c-0.327-0.016-0.649-0.046-0.967-0.092c-0.159-0.023-0.316-0.051-0.472-0.081c-0.059-0.012-0.117-0.024-0.175-0.037
		c-0.019-0.004-0.039-0.007-0.058-0.012c-0.132-0.029-0.262-0.062-0.392-0.096c-0.01-0.003-0.021-0.006-0.032-0.009
		c-0.031-0.009-0.063-0.018-0.095-0.026c-0.064-0.018-0.127-0.037-0.191-0.056c-0.022-0.007-0.046-0.013-0.068-0.02
		c-0.01-0.004-0.02-0.008-0.029-0.011c-0.039-0.012-0.078-0.024-0.117-0.037c-0.079-0.026-0.157-0.053-0.235-0.08
		c-0.05-0.018-0.1-0.036-0.149-0.055c-0.076-0.028-0.152-0.059-0.228-0.089c-0.048-0.02-0.097-0.038-0.145-0.058
		c-0.079-0.034-0.157-0.068-0.235-0.104c-0.042-0.02-0.085-0.038-0.127-0.058c-0.078-0.037-0.155-0.075-0.232-0.115
		c-0.02-0.009-0.039-0.018-0.058-0.027c-0.005-0.003-0.01-0.006-0.016-0.009c-0.016-0.008-0.032-0.016-0.048-0.023
		c-0.116-0.06-0.23-0.123-0.344-0.187c-0.026-0.016-0.051-0.031-0.077-0.046c-0.008-0.006-0.017-0.011-0.026-0.016
		c-0.02-0.012-0.039-0.023-0.058-0.035c-0.059-0.035-0.118-0.069-0.176-0.106c-0.032-0.019-0.063-0.039-0.094-0.061
		c-0.011-0.006-0.021-0.013-0.031-0.02c-1.969-1.273-3.421-3.199-4.094-5.43c-0.601-1.992-0.366-3.412-0.418-5.052l-2.092,0.521
		c-6.562,1.791-8.828,1.8-11.757,3.555l-0.087,0.021c-2.452,1.498-4.283,3.847-4.904,6.851
		C211.933,314.087,212.006,314.435,210.118,331.002z"/>
	<g>
		<path style="fill:#EAA224;" d="M216.891,320.355c0.755-6.811,0.225-12.524,5.955-16.203l0.086-0.022
			c0.635-0.399,1.319-0.743,2.035-1.041c0.131-0.104,0.258-0.198,0.38-0.284c-2.899,0.828-5.305,0.986-8.054,2.633l-0.086,0.021
			c-2.503,1.528-4.304,3.887-4.917,6.925c-0.363,1.786-0.28,2.033-2.17,18.617h5.639L216.891,320.355z"/>
		<path style="fill:#EAA224;" d="M225.962,331.002l0.252-7.862c0.048-1.499-1.128-2.754-2.627-2.802
			c-1.5-0.059-2.754,1.128-2.803,2.628l-0.258,8.036H225.962L225.962,331.002z"/>
		<path style="fill:#EAA224;" d="M261.463,331.002l-0.259-8.036c-0.047-1.499-1.29-2.682-2.802-2.628
			c-1.499,0.048-2.675,1.303-2.628,2.802l0.253,7.862H261.463L261.463,331.002z"/>
	</g>
	<path style="fill:#E2BF91;" d="M238.744,306.611c0.045-0.067,2.124-0.683,2.22-3.315v-9.341c-2.648-0.013-5.101-0.564-7.262-1.521
		c-0.185,5.544,0.483,7.936-0.672,8.459l-1.888,0.47c0.053,1.638-0.182,3.057,0.418,5.053c0.256,0.85,0.661,1.714,1.06,2.343
		L238.744,306.611L238.744,306.611z"/>
	<path style="fill:#FCE3BB;" d="M239.74,258.874c-4.088,6.802-12.767,5.755-15.849,5.133c-0.577-0.117-1.114,0.326-1.114,0.914l0,0
		c0,11.066-0.338,13.5,0.774,17.176c2.255,7.479,9.159,12.854,17.226,12.944c10.054,0.125,18.436-7.969,18.436-18.215
		c0-4.632,0-7.895,0-11.904l0,0c0-0.589-0.537-1.031-1.113-0.915c-3.082,0.622-11.761,1.669-15.85-5.132
		C241.681,257.927,240.31,257.927,239.74,258.874z"/>
	<path style="fill:#EFD0A3;" d="M232.101,279.961c-0.475-2.742-0.17-3.802-0.269-15.811c-3.206,0.617-6.334,0.181-7.941-0.144
		c-0.577-0.117-1.114,0.326-1.114,0.914c0,11.234-0.331,13.521,0.774,17.176c2.743,9.096,12.283,14.869,21.971,12.376
		C238.641,292.704,233.334,287.057,232.101,279.961z"/>
	<g>
	</g>
	<g>
	</g>
	<g>
	</g>
	<g>
	</g>
	<g>
	</g>
	<g>
	</g>
	<g>
	</g>
	<g>
	</g>
	<g>
	</g>
	<g>
	</g>
	<g>
	</g>
	<g>
	</g>
	<g>
	</g>
	<g>
	</g>
	<g>
	</g>
</g>
</svg>
