<?xml version="1.0" standalone="yes"?>
<svg xmlns="http://www.w3.org/2000/svg" width="411" height="411">
<path style="fill:#ee1e26; stroke:none;" d="M141 22L141 143L21 143L21 205L22.6713 205.042L24.1605 205.17L28.0015 205.715C29 205.838 29.9949 205.917 31 205.961C32.3313 206.019 33.6678 205.999 35 206L40 206L55 206L55.3542 204.329L55.4977 203.841L55.7654 202.84L57.3333 198L58.3488 195.001L59.108 193.024L59.5571 192.078L60.081 191.207L61.3603 189.921L62.0764 189.631L62.7909 189.631L63.4444 189.921L64.0023 190.466L64.4398 191.207L65.0255 193.024L65.6605 196C66.0285 197.664 66.4336 199.318 66.7145 201L67.2716 205L67.9205 209L68.2608 211C68.6974 213.344 69.3217 215.648 69.7145 218L70.2716 222C70.6772 224.672 71.1366 227.336 71.5864 230L72.0841 233L72.4491 235L73.554 239.981C73.8073 241.123 73.9882 242.292 74.4105 243.39L74.8218 244.005L74.9792 244.346L76 245L75.7299 243.329L75.6836 242.841L75.5718 240.955L75.5934 239.975L75.8596 237L76.2816 233L76.7145 230C76.8329 229 76.9179 228.006 76.9614 227L77.0895 223L77.2855 221C77.4671 219.667 77.6971 218.339 77.831 217L78.169 212L78.8341 207L79.0748 204L79.2847 202L79.8302 198C80.0234 196.004 79.9766 193.996 80.1698 192C80.3318 190.326 80.6708 188.675 80.8302 187C81.0837 184.339 80.9121 181.661 81.1698 179C81.2672 177.994 81.4297 176.997 81.5903 176L82.2461 172L82.7137 169C82.8363 168.002 82.9273 167.005 82.9606 166C83.0159 164.334 82.9749 162.664 83.0895 161C83.1589 159.993 83.2854 158.999 83.4244 158L83.8302 155C83.9595 153.671 83.977 152.337 84.0548 151.005L84.3164 149.059L85.0031 147.318L86.1574 146.029L86.9884 145.59L89 145C89.3098 146.669 89.6603 148.334 89.831 150.025C90.0317 152.011 89.9774 154.013 90.1698 156C90.2994 157.34 90.533 158.667 90.7145 160L90.9113 162L91.0355 165C91.0848 166.006 91.1631 167.001 91.2863 168L91.5903 170L92.2461 174L92.7145 177L92.9252 179L93.1659 182L93.8341 187L94.0748 190L94.2847 192L94.8341 196C94.9961 197.667 95.0805 199.337 95.2847 201L95.5756 203C95.7117 203.999 95.8411 204.992 95.9105 205.998C95.9783 206.982 95.9869 207.969 95.9961 208.955L96 213L97.4468 211.914L98.5656 210.698L99.1844 209.921L100.599 208.299L102.209 207.027L103.104 206.603C104.023 206.232 105.026 206.131 106.004 206.059L108 206.005L110 206L123 206L168 206L168.92 202.84L169.508 200.975L170.495 198L171.429 195.001L172.133 193.024L172.568 192.078L173.084 191.207L173.684 190.466L174.361 189.921L175.805 189.631L177.077 190.466L177.57 191.207L178.28 193.024L178.532 194.005L179.08 197L179.424 199L180.197 203C180.706 205.659 181.136 208.331 181.586 211L182.261 215C182.636 217.012 183.122 219 183.551 221L183.916 223L184.728 228C184.931 229.332 185.063 230.675 185.31 232L185.745 234L186.49 237C186.83 238.601 187.01 240.225 187.275 241.84L187.567 243.329L188 245L188.586 243.914L188.646 243.483L188.854 242.679L188.946 241.862L189.282 238.995L189.715 236L189.91 234C190.025 232.335 189.964 230.666 190.039 229C190.085 227.995 190.156 226.998 190.285 226L190.715 223L190.91 221C191.002 219.668 190.982 218.333 191.014 217C191.038 215.997 191.075 214.999 191.17 214C191.329 212.325 191.668 210.674 191.83 209C191.959 207.669 191.97 206.335 192.035 205C192.085 203.994 192.167 203 192.285 202L192.576 200L192.845 198L193.282 194L193.83 190C194.023 188.004 193.977 185.996 194.17 184L194.576 181C194.715 180.001 194.84 179.007 194.91 178L195.011 175C195.04 173.997 195.074 172.999 195.17 172L195.718 168L196.282 163L196.83 159C197.053 156.672 196.946 154.329 197.17 152.002C197.294 150.713 197.527 149.44 197.714 148.16L197.833 147.159L197.902 146.671L198 145L202 145L202.183 146.671L202.276 147.159L202.59 149.045L203.246 153L203.714 156C203.921 157.662 203.984 159.33 204.086 161L204.285 163L204.729 166L205.271 170C205.458 171.334 205.696 172.659 205.831 174L206.169 179L206.831 184C206.964 185.33 207.001 186.667 207.086 188L207.285 190L207.576 192C207.712 193 207.837 193.993 207.911 195L208.035 198C208.085 199.005 208.159 200.002 208.289 201C208.508 202.678 208.874 204.336 209.181 205.998L209.471 207.975L209.54 209.84L209.433 210.841L209 213L210.257 212.346L210.567 212.006L211.235 211.394L212.302 209.896L212.77 209.102L213.459 207.667L214 206L299 206C299.534 204.329 300.09 202.662 300.576 200.975L301.909 196L303.401 191.16L303.635 190.159L303.775 189.671L304 188L306.026 188.59L306.882 189.029L308.167 190.318L309.109 192.059L309.671 194.005L309.85 195.001L310.13 197L310.755 201L311.095 203C311.285 204.008 311.498 205.004 311.742 206C312.068 207.333 312.438 208.649 312.69 210C312.937 211.325 313.069 212.668 313.272 214L314.08 219L314.753 223L315.424 227L316.576 233L317.08 236L317.728 239.995L318.004 241.955L318.121 242.84L318.343 243.841L318.411 244.329L319 246L319.585 244.914L319.642 244.483L319.84 243.679L319.966 241.941L319.998 239.995L320.039 237C320.084 235.994 320.162 234.999 320.285 234L320.83 230C320.991 228.337 320.988 226.666 321.089 225C321.15 223.993 321.285 222.997 321.428 222L321.754 220L322.41 216C322.57 215.003 322.733 214.006 322.83 213C323.056 210.671 322.929 208.331 323.09 206C323.251 203.653 323.746 201.347 323.91 199L324.011 196C324.04 194.997 324.074 193.999 324.17 193L324.576 190C324.715 189.001 324.84 188.007 324.91 187L325.011 184C325.04 182.997 325.074 181.999 325.17 181L325.718 177L326.282 172L326.83 168C327.02 166.004 326.973 164.001 327.039 162C327.073 160.995 327.164 159.998 327.286 159L327.59 157L328.246 153L328.714 150.025C328.855 148.91 328.95 147.795 328.985 146.671L329 145L330.61 145.343L331.012 145.59L332.441 146.603L333.401 148.148L333.856 150.019L334.169 154C334.273 155.006 334.43 156.002 334.59 157L335.41 162C335.617 163.33 335.83 164.655 335.911 166C336.012 167.666 336.009 169.337 336.17 171L336.831 176L337.169 181L337.83 186C337.959 187.331 337.97 188.665 338.035 190C338.085 191.006 338.163 192.001 338.286 193L338.59 195L339.246 199L339.572 201C339.715 201.997 339.851 202.993 339.911 204C340.008 205.612 339.999 207.231 340.16 208.84L340.415 210.329L341 212L342.298 210.918L342.606 210.508L343.263 209.724L344.196 208.1L344.448 207.652L345 206L390 206L390 143L269 143L269 22L141 22M200 171C199.994 173.003 200.024 175.008 199.83 177.005L199.169 182L198.831 187L198.17 192C197.977 193.996 198.023 196.004 197.83 198L197.424 201C197.285 201.999 197.16 202.993 197.09 204L196.989 207C196.96 208.003 196.926 209.001 196.83 210C196.702 211.341 196.463 212.668 196.271 214L195.729 218C195.542 219.333 195.298 220.659 195.17 222C195.074 222.999 195.038 223.997 195.014 225C194.982 226.333 195.002 227.668 194.91 229C194.841 230.007 194.715 231.001 194.576 232L194.17 235C193.977 236.996 194.023 239.004 193.83 241C193.668 242.674 193.33 244.326 193.17 246C192.947 248.328 193.054 250.672 192.83 253C192.702 254.341 192.461 255.667 192.271 257C192.033 258.662 191.856 260.335 191.489 261.975C191.107 263.68 190.527 265.337 190 267L188 267L187.466 265.329L186.964 263.84C186.433 262.238 185.892 260.644 185.503 259C185.268 258.008 185.097 257.004 184.924 256L184.272 252C184.069 250.668 183.937 249.325 183.69 248C183.314 245.98 182.686 244.02 182.31 242C182.063 240.675 181.926 239.332 181.729 238L181.13 234L180.576 230L180.076 227C179.903 225.995 179.724 224.995 179.501 224L178.745 221L178.31 219C178.063 217.675 177.931 216.332 177.728 215L177.079 211L176.739 209L176.117 206.025L175.327 202.671L175 201L174.087 202.086L173.909 202.517L173.471 203.32L172.769 205.039L172.361 205.96L171.273 207.683L169.772 208.972C168.921 209.489 167.957 209.712 166.985 209.852L164.999 209.981L163 209.999L159 210L152 210L121 210L112 210C110.667 210.003 109.336 209.997 108.004 210.059L106.043 210.318L104.21 211.028L102.609 212.318L101.228 214.059C100.556 215.029 99.9327 216.042 99.2168 216.981L97.696 218.851L96.0671 220.39L94.6559 221.346L93 222L92.902 220.329L92.8326 219.841L92.7137 218.84C92.5272 217.559 92.2986 216.287 92.169 214.998C92.0353 213.669 91.9992 212.333 91.9144 211L91.7137 209L91.2461 206L90.5903 202L90.2863 200L90.0887 198L89.9113 194L89.7137 192L89.2461 189L88.5903 185C88.4297 184.003 88.2674 183.006 88.1698 182C88.0421 180.684 88.0162 179.366 88.0039 178.045L88 174L87.1034 175.086L86.9522 175.517L86.5756 176.321L86.1636 178.059L85.7299 181.001C85.4842 182.665 85.2053 184.32 85.0895 186C84.9748 187.664 85.0159 189.334 84.9606 191C84.9273 192.006 84.8323 193.001 84.7145 194L84.4244 196C84.2882 197 84.1626 197.993 84.0887 199C83.9667 200.665 83.9912 202.336 83.8302 204L83.4244 207C83.2854 207.999 83.1588 208.993 83.0895 210C82.9978 211.332 83.0178 212.666 82.9861 214C82.9623 215.003 82.9254 216.001 82.8302 217L82.2816 221L81.7184 226L81.1698 230C81.0742 230.999 81.0405 231.997 81.0108 233L80.9105 236C80.8399 237.007 80.7146 238.001 80.5756 239L80.1698 242C79.9766 243.996 80.0234 246.004 79.8302 248L79.2847 252L79.0748 254L78.9252 256C78.8 257.34 78.6521 258.676 78.4051 259.999L78.0231 261.981L77.7762 262.941L77.4606 263.851L76.5602 265.39L75.8449 266.005L74 267L73.6728 265.329L72.8827 261.975L72.2608 259L71.5864 255L70.4136 248L69.7392 244C69.3643 241.988 68.8784 240 68.4491 238L68.0841 236L67.2716 231C67.0688 229.668 66.9367 228.325 66.6898 227C66.3136 224.98 65.6864 223.02 65.3102 221C65.0634 219.675 64.9312 218.332 64.7284 217L63.9198 212L62.7539 205.025L62.429 203.16L62.2762 202.159L62.1829 201.671L62 200L61.2168 201.086L60.6412 202.321L59.6111 204.999L58.7222 206.853L57.49 208.397L56.7222 208.972C55.3099 209.857 53.6087 209.911 51.9992 209.981L50 209.999L46 210L21 210L21 270L141 270L141 392L269 392L269 303L269 281L269.005 278C269.017 277.002 269.037 276.012 269.148 275.019C269.288 273.777 269.701 272.506 270.603 271.603C271.506 270.701 272.777 270.288 274.019 270.148C275.672 269.962 277.34 270.003 279 270L301 270L390 270L390 210L361 210L357 210L354.001 210.005C352.081 210.041 350.033 209.997 348.329 211.028C346.771 211.971 345.781 213.544 344.791 215.018L343.54 216.976L342.4 218.84L341.892 219.841L341.609 220.329L341 222L339.485 221.346L338.404 220.39L337.409 218.851L337.028 217.941L336.722 216.981L336.305 214.999L336.086 213C335.983 211.33 335.929 209.66 335.711 208C335.314 204.98 334.479 202.034 334.171 199C334.002 197.337 334.033 195.665 333.911 194L333.715 192C333.533 190.667 333.299 189.34 333.17 188C332.977 186.004 333.023 183.996 332.83 182L332.17 177.045C332.08 176.258 332.04 175.463 332.015 174.671L332 173L331.4 174.086L331.319 174.517L331.071 175.321L330.748 177.059L330.286 180.001L330.089 182L329.911 186C329.764 188.013 329.398 189.997 329.166 192L328.834 196L328.169 201L327.831 206C327.697 207.339 327.467 208.667 327.285 210L327.09 212C326.998 213.332 327.018 214.667 326.986 216C326.962 217.003 326.925 218.001 326.83 219L326.424 222C326.285 222.999 326.16 223.993 326.09 225L325.989 228C325.96 229.003 325.926 230.001 325.83 231C325.702 232.341 325.463 233.668 325.271 235L324.729 239C324.542 240.333 324.298 241.659 324.17 243C323.946 245.328 324.053 247.672 323.83 250L323.424 253C323.285 253.999 323.161 254.993 323.09 256L322.942 259.999L322.852 260.995L322.401 262.941L321.441 264.684L320.843 265.39L320.012 266.005L318 267L317.247 262.955L316.551 259L315.661 255L315.084 252L314.754 250L314.272 247L313.728 243L313.079 239L312.739 237C312.364 234.988 311.878 233 311.449 231L311.084 229L310.754 227L310.272 224C310.025 222.333 309.851 220.657 309.54 219C309.288 217.657 308.948 216.333 308.65 215C308.28 213.339 307.918 211.675 307.614 210L307.275 208L306.728 204.045C306.528 202.691 306.251 201.345 306 200L305.313 201.086L305.175 201.517L304.83 202.321L304.56 203.137L303.866 204.999L302.911 206.853L301.581 208.397L300.775 208.972C299.631 209.662 298.302 209.844 296.996 209.941L295 209.995L293 210L279 210L242 210L230 210L224 210.001C223.007 210.008 222.006 209.984 221.015 210.059C220.07 210.13 219.092 210.224 218.21 210.603L216.609 211.603L215.232 213.148L214.59 214.059L213.305 215.999L212.641 216.977L211.958 217.922L211.244 218.793L210.502 219.534L208.964 220.369L208.224 220.369L207.559 220.079L206.998 219.534L206.56 218.793L205.978 216.976C205.678 215.663 205.468 214.328 205.247 213L204.754 210L204.428 208C204.285 207.001 204.162 206.007 204.086 205L203.831 201C203.697 199.661 203.467 198.333 203.285 197L203.09 195C202.949 193.002 203.024 190.996 202.83 189C202.732 187.994 202.57 186.997 202.41 186L201.754 182L201.428 180L201.169 178.001L201.025 176.019C200.967 175.12 200.949 174.216 200.84 173.321L200.642 172.517L200.585 172.086L200 171z"/>
</svg>
