<?xml version="1.0" encoding="iso-8859-1"?>
<!-- Generator: Adobe Illustrator 19.0.0, SVG Export Plug-In . SVG Version: 6.00 Build 0)  -->
<svg version="1.1" id="Capa_1" xmlns="http://www.w3.org/2000/svg" xmlns:xlink="http://www.w3.org/1999/xlink" x="0px" y="0px"
	 viewBox="0 0 512 512" style="enable-background:new 0 0 512 512;" xml:space="preserve">
<path style="fill:#2E88CC;" d="M459.08,511.999H52.926l6.378-11.772c19.248-35.547,56.425-57.701,96.855-57.701h199.69
	c40.429,0,77.618,22.154,96.865,57.701L459.08,511.999z"/>
<g>
	<polyline style="fill:#EAEAEA;" points="256.001,461.905 172.625,511.997 185.651,442.848 	"/>
	<polyline style="fill:#EAEAEA;" points="256.001,461.905 339.377,511.997 326.351,442.848 	"/>
</g>
<path style="fill:#2279AF;" d="M262.715,461.909v50.09h-15.682v-50.09c0-4.339,3.513-7.841,7.841-7.841
	S262.715,457.572,262.715,461.909z"/>
<polygon style="fill:#2E88CC;" points="471.916,186.401 417.644,240.673 94.356,240.673 40.084,186.401 70.801,112.778 
	93.227,59.029 212.591,15.745 256,0 418.773,59.029 "/>
<g>
	<path style="fill:#2279AF;" d="M191.221,122.543l-23.764,68.219l-96.656-77.983l22.426-53.749l119.364-43.284
		C143.567,40.774,191.221,122.543,191.221,122.543z"/>
	<path style="fill:#2279AF;" d="M358.154,137.723c-1.842,0-3.692-0.645-5.182-1.959c-3.248-2.864-3.561-7.819-0.697-11.067
		l36.875-41.83c2.863-3.249,7.818-3.561,11.067-0.697c3.248,2.864,3.561,7.819,0.697,11.067l-36.875,41.83
		C362.49,136.825,360.327,137.723,358.154,137.723z"/>
	<path style="fill:#2279AF;" d="M435.178,192.804c-0.104,0-0.208-0.002-0.312-0.006l-39.891-1.56
		c-4.327-0.169-7.698-3.814-7.529-8.141s3.829-7.699,8.141-7.529l39.891,1.56c4.327,0.169,7.698,3.814,7.529,8.141
		C442.843,189.492,439.367,192.804,435.178,192.804z"/>
	<polygon style="fill:#2279AF;" points="174.43,158.257 170.949,240.673 94.356,240.673 40.084,186.401 93.227,59.029 	"/>
	<path style="fill:#2279AF;" d="M199.302,442.527c-22.959,0-44.068,22.154-55.004,57.701L140.681,512H52.922l6.378-11.772
		c19.248-35.547,56.425-57.701,96.855-57.701H199.302z"/>
</g>
<path style="fill:#FFD8BB;" d="M396.281,236.005c28.25,0,51.152,22.902,51.152,51.152c0,28.25-22.902,51.152-51.152,51.152H115.721
	c-28.25,0-51.152-22.902-51.152-51.152c0-28.25,22.902-51.152,51.152-51.152"/>
<g>
	<path style="fill:#E0B79B;" d="M123.442,309.487c-3.93-0.544-6.694-4.101-6.723-8.069c-0.093-13.004-6.121-17.525-10.608-19.088
		c-2.635-0.918-4.347-3.469-4.33-6.259l0.015-2.397l0,0c-0.027-4.459,4.284-7.735,8.538-6.392c3.802,1.2,8.302,3.389,12.317,7.38
		c6.471,6.433,9.752,15.537,9.752,27.062C132.403,306.422,128.271,310.156,123.442,309.487z"/>
	<path style="fill:#E0B79B;" d="M387.555,309.511c-4.043-0.465-6.936-4.117-6.909-8.187c0.075-11.335,3.355-20.304,9.751-26.662
		c3.324-3.304,6.979-5.372,10.296-6.666c5.097-1.99,10.581,1.881,10.549,7.352l0,0c-0.019,3.14-1.893,6.017-4.818,7.16
		c-4.431,1.73-10.096,6.443-10.096,19.216C396.327,306.36,392.301,310.057,387.555,309.511z"/>
</g>
<path style="fill:#FFD8BB;" d="M395.282,205.738v116.897c0,38.453-15.588,73.279-40.795,98.486
	c-25.207,25.207-60.032,40.795-98.486,40.795c-76.928,0-139.281-62.364-139.281-139.281V205.738
	C198.332,141.116,313.671,141.116,395.282,205.738z"/>
<g>
	<path style="fill:#2E88CC;" d="M153.848,137.723c-2.174,0-4.335-0.898-5.885-2.657l-36.875-41.83
		c-2.864-3.248-2.552-8.204,0.697-11.067c3.248-2.865,8.204-2.551,11.067,0.697l36.875,41.83c2.864,3.248,2.552,8.204-0.697,11.067
		C157.539,137.078,155.689,137.723,153.848,137.723z"/>
	<path style="fill:#2E88CC;" d="M76.824,192.804c-4.189,0-7.665-3.311-7.83-7.535c-0.169-4.327,3.201-7.972,7.529-8.141l39.89-1.56
		c4.298-0.171,7.972,3.201,8.141,7.529s-3.201,7.972-7.529,8.141l-39.89,1.56C77.032,192.802,76.928,192.804,76.824,192.804z"/>
</g>
<path style="fill:#E2A827;" d="M395.04,160.243v45.489H116.719v-45.489c0-19.906,30.204-32.118,74.502-37.701
	c19.321-2.436,41.318-3.607,64.664-3.607C332.739,118.936,395.04,131.659,395.04,160.243z"/>
<g>
	<path style="fill:#F9C436;" d="M395.04,160.243v23.534h-211.41v-45.49c0-5.917,2.666-11.155,7.59-15.745
		c19.321-2.436,41.318-3.607,64.664-3.607C332.739,118.936,395.04,131.659,395.04,160.243z"/>
	<path style="fill:#F9C436;" d="M267.735,89.168l-8.405,5.603c-2.016,1.343-4.642,1.343-6.658,0l-8.405-5.603
		c-8.547-5.698-13.68-15.289-13.68-25.561V44.261c0-3.314,2.687-6.001,6.001-6.001h38.823c3.314,0,6.001,2.687,6.001,6.001v19.347
		C281.414,73.879,276.281,83.471,267.735,89.168z"/>
</g>
<path style="fill:#E0B79B;" d="M255.997,345.762c-16.862,0-30.581-13.719-30.581-30.581v-71.996c0-4.33,3.511-7.841,7.841-7.841
	c4.33,0,7.841,3.511,7.841,7.841v71.996c0,8.214,6.684,14.898,14.898,14.898c4.33,0,7.841,3.511,7.841,7.841
	S260.327,345.762,255.997,345.762z"/>
<g>
	<path style="fill:#32383F;" d="M323.606,296.097c-4.33,0-7.841-3.511-7.841-7.841v-16.728c0-4.33,3.511-7.841,7.841-7.841
		s7.841,3.511,7.841,7.841v16.728C331.447,292.586,327.936,296.097,323.606,296.097z"/>
	<path style="fill:#32383F;" d="M192.57,296.097c-4.33,0-7.841-3.511-7.841-7.841v-16.728c0-4.33,3.511-7.841,7.841-7.841
		s7.841,3.511,7.841,7.841v16.728C200.411,292.586,196.9,296.097,192.57,296.097z"/>
</g>
<path style="fill:#E94F4E;" d="M255.997,393.405c-14.812,0-29.622-3.812-43.719-11.435c-3.809-2.06-5.227-6.818-3.167-10.627
	c2.06-3.809,6.817-5.227,10.627-3.167c23.722,12.828,48.8,12.828,72.519,0c3.809-2.061,8.567-0.642,10.627,3.167
	c2.06,3.81,0.642,8.568-3.168,10.627C285.62,389.593,270.808,393.405,255.997,393.405z"/>
<path style="fill:#32383F;" d="M395.04,205.733c0,24.36-45.27,44.799-106.233,50.299c-10.549,0.962-21.579,1.464-32.923,1.464
	c-76.865,0-139.166-23.179-139.166-51.762c0-28.594,62.301-41.308,139.166-41.308c11.344,0,22.374,0.272,32.923,0.847
	C349.77,168.523,395.04,181.362,395.04,205.733z"/>
<path style="fill:#4E555E;" d="M395.04,205.733c0,24.36-45.27,44.799-106.233,50.299c-60.963-5.499-106.222-25.939-106.222-50.299
	c0-24.37,45.26-37.209,106.222-40.461C349.77,168.523,395.04,181.362,395.04,205.733z"/>
<g>
</g>
<g>
</g>
<g>
</g>
<g>
</g>
<g>
</g>
<g>
</g>
<g>
</g>
<g>
</g>
<g>
</g>
<g>
</g>
<g>
</g>
<g>
</g>
<g>
</g>
<g>
</g>
<g>
</g>
</svg>
